<svg width="28" height="19" viewBox="0 0 28 19" fill="none" xmlns="http://www.w3.org/2000/svg">
<path d="M12.048 1.152V12.624C12.048 14.4 11.544 15.768 10.536 16.728C9.544 17.688 8.2 18.168 6.504 18.168C4.728 18.168 3.304 17.664 2.232 16.656C1.16 15.648 0.624 14.216 0.624 12.36H4.704C4.704 13.064 4.848 13.6 5.136 13.968C5.424 14.32 5.84 14.496 6.384 14.496C6.88 14.496 7.264 14.336 7.536 14.016C7.808 13.696 7.944 13.232 7.944 12.624V1.152H12.048Z" fill="white"/>
<path d="M21.459 18.168C20.227 18.168 19.123 17.968 18.147 17.568C17.171 17.168 16.387 16.576 15.795 15.792C15.219 15.008 14.915 14.064 14.883 12.96H19.251C19.315 13.584 19.531 14.064 19.899 14.4C20.267 14.72 20.747 14.88 21.339 14.88C21.947 14.88 22.427 14.744 22.779 14.472C23.131 14.184 23.307 13.792 23.307 13.296C23.307 12.88 23.163 12.536 22.875 12.264C22.603 11.992 22.259 11.768 21.843 11.592C21.443 11.416 20.867 11.216 20.115 10.992C19.027 10.656 18.139 10.32 17.451 9.984C16.763 9.648 16.171 9.152 15.675 8.496C15.179 7.84 14.931 6.984 14.931 5.928C14.931 4.36 15.499 3.136 16.635 2.256C17.771 1.36 19.251 0.912 21.075 0.912C22.931 0.912 24.427 1.36 25.563 2.256C26.699 3.136 27.307 4.368 27.387 5.952H22.947C22.915 5.408 22.715 4.984 22.347 4.68C21.979 4.36 21.507 4.2 20.931 4.2C20.435 4.2 20.035 4.336 19.731 4.608C19.427 4.864 19.275 5.24 19.275 5.736C19.275 6.28 19.531 6.704 20.043 7.008C20.555 7.312 21.355 7.64 22.443 7.992C23.531 8.36 24.411 8.712 25.083 9.048C25.771 9.384 26.363 9.872 26.859 10.512C27.355 11.152 27.603 11.976 27.603 12.984C27.603 13.944 27.355 14.816 26.859 15.6C26.379 16.384 25.675 17.008 24.747 17.472C23.819 17.936 22.723 18.168 21.459 18.168Z" fill="#FF8D41"/>
</svg>